<svg xmlns="http://www.w3.org/2000/svg" width="223" height="41.403" viewBox="0 0 223 41.403">
  <g id="Group_2" data-name="Group 2" transform="translate(-42 424.464)">
    <path id="Path_1" data-name="Path 1" d="M21.369-117.726h-2.8l-2.291-6.059H7.111l-2.155,6.059H2.138l8.289-21.613H13.05Zm-5.923-8.335-3.391-9.209a8.819,8.819,0,0,1-.332-1.447h-.06a8.073,8.073,0,0,1-.347,1.447l-3.361,9.209Zm19.6,8.335v-21.613h5.968q11.424,0,11.424,10.535a10.617,10.617,0,0,1-3.173,8.041,11.769,11.769,0,0,1-8.493,3.037Zm2.532-19.322v17.031H40.8a9.154,9.154,0,0,0,6.616-2.276,8.531,8.531,0,0,0,2.366-6.451q0-8.3-8.832-8.3Zm44.919-2.291-8,21.613H71.7l-7.837-21.613h2.818L72.668-122.2a10.175,10.175,0,0,1,.437,1.914h.06a9.387,9.387,0,0,1,.5-1.944l6.1-17.106Zm16.132,21.613H96.094v-21.613h2.532Zm16.177,0v-21.613h5.968q11.424,0,11.424,10.535a10.617,10.617,0,0,1-3.173,8.041,11.769,11.769,0,0,1-8.493,3.037Zm2.532-19.322v17.031h3.225a9.154,9.154,0,0,0,6.617-2.276,8.531,8.531,0,0,0,2.366-6.451q0-8.3-8.832-8.3Zm45.582,19.322h-2.8l-2.291-6.059h-9.164l-2.155,6.059h-2.818l8.289-21.613H154.6Zm-5.923-8.335-3.391-9.209a8.817,8.817,0,0,1-.332-1.447h-.06a8.073,8.073,0,0,1-.347,1.447l-3.361,9.209Z" transform="translate(102.083 -274.713)" fill="#fff"/>
    <g id="Group_1" data-name="Group 1" transform="translate(42 -424.464)">
      <circle id="Ellipse_1" data-name="Ellipse 1" cx="1.285" cy="1.285" r="1.285" transform="translate(3.946 12.157)" fill="#98daf6"/>
      <circle id="Ellipse_2" data-name="Ellipse 2" cx="1.59" cy="1.59" r="1.59" transform="translate(7.602 6.09)" fill="#98daf6"/>
      <circle id="Ellipse_3" data-name="Ellipse 3" cx="1.801" cy="1.801" r="1.801" transform="translate(13.806 1.455)" fill="#98daf6"/>
      <circle id="Ellipse_4" data-name="Ellipse 4" cx="2.066" cy="2.066" r="2.066" transform="translate(20.456 0)" fill="#98daf6"/>
      <circle id="Ellipse_5" data-name="Ellipse 5" cx="2.317" cy="2.317" r="2.317" transform="translate(27.61 1.455)" fill="#8dd8f8"/>
      <circle id="Ellipse_6" data-name="Ellipse 6" cx="2.542" cy="2.542" r="2.542" transform="translate(33.269 5.058)" fill="#8dd8f8"/>
      <circle id="Ellipse_7" data-name="Ellipse 7" cx="3.156" cy="3.156" r="3.156" transform="translate(36.823 10.142)" fill="#8dd8f8"/>
      <circle id="Ellipse_8" data-name="Ellipse 8" cx="3.472" cy="3.472" r="3.472" transform="translate(37.911 17.506)" fill="#8dd8f8"/>
      <circle id="Ellipse_9" data-name="Ellipse 9" cx="1.272" cy="1.272" r="1.272" transform="translate(38.338 26.737)" fill="#0662b0"/>
      <circle id="Ellipse_10" data-name="Ellipse 10" cx="1.59" cy="1.59" r="1.59" transform="translate(34.074 32.266)" fill="#0662b0"/>
      <circle id="Ellipse_11" data-name="Ellipse 11" cx="1.801" cy="1.801" r="1.801" transform="translate(27.428 36.348)" fill="#0662b0"/>
      <circle id="Ellipse_12" data-name="Ellipse 12" cx="2.065" cy="2.065" r="2.065" transform="translate(20.329 37.274)" fill="#0662b0"/>
      <circle id="Ellipse_13" data-name="Ellipse 13" cx="2.253" cy="2.253" r="2.253" transform="translate(12.698 35.445)" fill="#0662b0"/>
      <circle id="Ellipse_14" data-name="Ellipse 14" cx="2.517" cy="2.517" r="2.517" transform="translate(6.525 31.313)" fill="#0662b0"/>
      <circle id="Ellipse_15" data-name="Ellipse 15" cx="3.192" cy="3.192" r="3.192" transform="translate(1.617 24.928)" fill="#0662b0"/>
      <circle id="Ellipse_16" data-name="Ellipse 16" cx="3.549" cy="3.549" r="3.549" transform="translate(0 16.899)" fill="#0662b0"/>
      <circle id="Ellipse_17" data-name="Ellipse 17" cx="0.822" cy="0.822" r="0.822" transform="translate(10.058 24.544)" fill="#00aeef"/>
      <circle id="Ellipse_18" data-name="Ellipse 18" cx="0.969" cy="0.969" r="0.969" transform="translate(9.089 19.682)" fill="#00aeef"/>
      <circle id="Ellipse_19" data-name="Ellipse 19" cx="1.166" cy="1.166" r="1.166" transform="translate(9.861 14.426)" fill="#00aeef"/>
      <circle id="Ellipse_20" data-name="Ellipse 20" cx="1.351" cy="1.351" r="1.351" transform="translate(12.454 10.511)" fill="#00aeef"/>
      <circle id="Ellipse_21" data-name="Ellipse 21" cx="1.51" cy="1.51" r="1.51" transform="translate(16.588 7.679)" fill="#00aeef"/>
      <circle id="Ellipse_22" data-name="Ellipse 22" cx="1.601" cy="1.601" r="1.601" transform="translate(21.039 6.699)" fill="#00aeef"/>
      <circle id="Ellipse_23" data-name="Ellipse 23" cx="1.913" cy="1.913" r="1.913" transform="translate(25.449 7.164)" fill="#00aeef"/>
      <circle id="Ellipse_24" data-name="Ellipse 24" cx="2.211" cy="2.211" r="2.211" transform="translate(29.383 9.9)" fill="#00aeef"/>
      <circle id="Ellipse_25" data-name="Ellipse 25" cx="0.822" cy="0.822" r="0.822" transform="translate(33.167 15.348)" fill="#0662b0"/>
      <circle id="Ellipse_26" data-name="Ellipse 26" cx="1.003" cy="1.003" r="1.003" transform="translate(33.805 19.744)" fill="#0662b0"/>
      <circle id="Ellipse_27" data-name="Ellipse 27" cx="1.166" cy="1.166" r="1.166" transform="translate(32.69 24.62)" fill="#0662b0"/>
      <circle id="Ellipse_28" data-name="Ellipse 28" cx="1.351" cy="1.351" r="1.351" transform="translate(29.679 28.196)" fill="#0662b0"/>
      <circle id="Ellipse_29" data-name="Ellipse 29" cx="1.51" cy="1.51" r="1.51" transform="translate(25.185 30.755)" fill="#0662b0"/>
      <circle id="Ellipse_30" data-name="Ellipse 30" cx="1.678" cy="1.678" r="1.678" transform="translate(20.518 31.481)" fill="#0662b0"/>
      <circle id="Ellipse_31" data-name="Ellipse 31" cx="1.99" cy="1.99" r="1.99" transform="translate(15.483 30.392)" fill="#0662b0"/>
      <circle id="Ellipse_32" data-name="Ellipse 32" cx="2.228" cy="2.228" r="2.228" transform="translate(11.027 27.18)" fill="#0662b0"/>
      <circle id="Ellipse_33" data-name="Ellipse 33" cx="0.454" cy="0.454" r="0.454" transform="translate(18.858 26.397)" fill="#00aeef"/>
      <circle id="Ellipse_34" data-name="Ellipse 34" cx="0.531" cy="0.531" r="0.531" transform="translate(16.9 24.79)" fill="#00aeef"/>
      <circle id="Ellipse_35" data-name="Ellipse 35" cx="0.61" cy="0.61" r="0.61" transform="translate(15.284 22.299)" fill="#00aeef"/>
      <circle id="Ellipse_36" data-name="Ellipse 36" cx="0.69" cy="0.69" r="0.69" transform="translate(14.869 19.6)" fill="#00aeef"/>
      <circle id="Ellipse_37" data-name="Ellipse 37" cx="0.796" cy="0.796" r="0.796" transform="translate(15.709 16.913)" fill="#00aeef"/>
      <circle id="Ellipse_38" data-name="Ellipse 38" cx="0.953" cy="0.953" r="0.953" transform="translate(17.062 14.686)" fill="#00aeef"/>
      <circle id="Ellipse_39" data-name="Ellipse 39" cx="1.059" cy="1.059" r="1.059" transform="translate(19.079 13.214)" fill="#00aeef"/>
      <circle id="Ellipse_40" data-name="Ellipse 40" cx="1.272" cy="1.272" r="1.272" transform="translate(21.696 12.633)" fill="#00aeef"/>
      <circle id="Ellipse_41" data-name="Ellipse 41" cx="0.476" cy="0.476" r="0.476" transform="translate(25.115 14.115)" fill="#0662b0"/>
      <circle id="Ellipse_42" data-name="Ellipse 42" cx="0.531" cy="0.531" r="0.531" transform="translate(26.918 15.639)" fill="#0662b0"/>
      <circle id="Ellipse_43" data-name="Ellipse 43" cx="0.61" cy="0.61" r="0.61" transform="translate(28.32 17.929)" fill="#0662b0"/>
      <circle id="Ellipse_44" data-name="Ellipse 44" cx="0.69" cy="0.69" r="0.69" transform="translate(28.506 20.469)" fill="#0662b0"/>
      <circle id="Ellipse_45" data-name="Ellipse 45" cx="0.817" cy="0.817" r="0.817" transform="translate(27.579 22.987)" fill="#0662b0"/>
      <circle id="Ellipse_46" data-name="Ellipse 46" cx="0.875" cy="0.875" r="0.875" transform="translate(26.068 24.888)" fill="#0662b0"/>
      <circle id="Ellipse_47" data-name="Ellipse 47" cx="1.062" cy="1.062" r="1.062" transform="translate(23.633 26.241)" fill="#0662b0"/>
      <circle id="Ellipse_48" data-name="Ellipse 48" cx="1.217" cy="1.217" r="1.217" transform="translate(20.643 26.397)" fill="#0662b0"/>
    </g>
  </g>
</svg>
