<svg xmlns="http://www.w3.org/2000/svg" width="42.964" height="31.573" viewBox="0 0 42.964 31.573">
  <g id="Group_70" data-name="Group 70" transform="translate(0.362 1.023)">
    <path id="Path_2501" data-name="Path 2501" d="M1449.3,711.711l13.71,3.192a.7.7,0,0,1,.519.835l-1.891,8.124a.7.7,0,0,1-.834.519l-8.5-1.978-2.871,2.9.788-3.385-3.131-.729a.7.7,0,0,1-.519-.835l1.891-8.124A.7.7,0,0,1,1449.3,711.711Z" transform="translate(-1421.447 -709.432)" fill="none" stroke="#021222" stroke-width="1"/>
    <path id="Path_2499" data-name="Path 2499" d="M1731.57,698.323c-4.247-7.162-6.082-12.956-2.915-18.031a7.7,7.7,0,0,1,5.4-3.492,12.124,12.124,0,0,0,.1,10.593,4,4,0,1,0,4.693,6.369l4.829,3.771a.827.827,0,0,0,.216,1.043l1.007.786a.826.826,0,0,0,1.156-.142l.021-.026a.826.826,0,0,0-.142-1.156l-1.007-.787a.827.827,0,0,0-1.065.043l-4.809-3.755a4,4,0,0,0-3.023-6.614c-.129,0-.256.007-.382.019a10.593,10.593,0,0,1,.26-10.358,41.725,41.725,0,0,1,7.22.568c4.391.54,5.471-.792,5.471-.792a3.593,3.593,0,0,1-1.512,4.319s-.432-.216.612,1.08,1.332,3.959,1.476,4.679-.4.684-.576,1.476,2.339,4.175,2.591,5-2.052,1.764-2.052,1.764l.36,1.152c-.18.648-3.527.5-3.527.5.72,1.08,2.663.936,2.663.936l.576.4a5.458,5.458,0,0,1-.612.684c-.288.252-.288,1.584-.288,1.584.324,2.2-.252,2.627-1.512,3.167s-3.2-.792-3.2-.54-.18,2.555-.18,2.555c-7.558,3.707-12.021-1.836-12.021-1.836A12.3,12.3,0,0,0,1731.57,698.323Z" transform="translate(-1727.056 -676.362)" fill="none" stroke="#021222" stroke-width="1"/>
  </g>
</svg>
