<svg xmlns="http://www.w3.org/2000/svg" width="50.561" height="47.518" viewBox="0 0 50.561 47.518">
  <path id="Path_3609" data-name="Path 3609" d="M6.245-103.978v-1.388a23.964,23.964,0,0,0,9.07-10.259,28.148,28.148,0,0,0,2.726-11.448q0-5.848-1.982-5.848H11a7.963,7.963,0,0,1-5.055-3.073,9.543,9.543,0,0,1-1.883-5.947,7.422,7.422,0,0,1,2.676-6.245,9.88,9.88,0,0,1,6.245-2.082,10.659,10.659,0,0,1,6.542,2.23,15.052,15.052,0,0,1,4.708,6.245,22.654,22.654,0,0,1,1.735,9.07,30.6,30.6,0,0,1-5.353,17.2A29.591,29.591,0,0,1,6.245-103.978Zm27.655,0v-1.388a24.139,24.139,0,0,0,8.871-10.408,28.625,28.625,0,0,0,2.726-11.3q0-5.848-2.082-5.848-1.487,0-3.073.05a10.066,10.066,0,0,1-1.982-.05,8.111,8.111,0,0,1-5.006-3.073,9.379,9.379,0,0,1-1.933-5.947,7.336,7.336,0,0,1,2.775-6.2,9.994,9.994,0,0,1,6.245-2.131,11.407,11.407,0,0,1,9.417,4.956q3.767,4.956,3.767,12.588a30.6,30.6,0,0,1-5.353,17.2A29.591,29.591,0,0,1,33.9-103.978Z" transform="translate(-3.564 150.768)" fill="none" stroke="#fff" stroke-width="1"/>
</svg>
