<svg xmlns="http://www.w3.org/2000/svg" width="19.696" height="19.696" viewBox="0 0 19.696 19.696">
  <g id="Group_83" data-name="Group 83" transform="translate(0.5 0.5)">
    <path id="Path_2572" data-name="Path 2572" d="M4,4,4,6.337A2.337,2.337,0,0,1,6.337,4H20.359A2.337,2.337,0,0,1,22.7,6.337V20.359A2.337,2.337,0,0,1,20.359,22.7H6.337A2.337,2.337,0,0,1,4,20.359Z" transform="translate(-4 -4)" fill="none" stroke="#fff" stroke-linecap="round" stroke-linejoin="round" stroke-width="1"/>
    <path id="Path_2573" data-name="Path 2573" d="M8,11v5.843" transform="translate(-3.326 -2.82)" fill="none" stroke="#fff" stroke-linecap="round" stroke-linejoin="round" stroke-width="1"/>
    <path id="Path_2574" data-name="Path 2574" d="M8,8v.012" transform="translate(-3.326 -3.326)" fill="none" stroke="#fff" stroke-linecap="round" stroke-linejoin="round" stroke-width="1"/>
    <path id="Path_2575" data-name="Path 2575" d="M12,16.843V11" transform="translate(-2.652 -2.82)" fill="none" stroke="#fff" stroke-linecap="round" stroke-linejoin="round" stroke-width="1"/>
    <path id="Path_2576" data-name="Path 2576" d="M16.674,16.843V13.337a2.337,2.337,0,1,0-4.674,0" transform="translate(-2.652 -2.82)" fill="none" stroke="#fff" stroke-linecap="round" stroke-linejoin="round" stroke-width="1"/>
  </g>
</svg>
