<svg xmlns="http://www.w3.org/2000/svg" width="50.561" height="47.517" viewBox="0 0 50.561 47.517">
  <path id="Path_3610" data-name="Path 3610" d="M51.444-103.979v-1.388a23.964,23.964,0,0,1-9.07-10.259,28.147,28.147,0,0,1-2.726-11.448q0-5.848,1.982-5.848h5.055a7.963,7.963,0,0,0,5.055-3.073,9.543,9.543,0,0,0,1.883-5.947,7.421,7.421,0,0,0-2.676-6.245,9.88,9.88,0,0,0-6.245-2.082,10.659,10.659,0,0,0-6.542,2.23,15.051,15.051,0,0,0-4.708,6.245,22.653,22.653,0,0,0-1.735,9.069,30.6,30.6,0,0,0,5.353,17.2A29.591,29.591,0,0,0,51.444-103.979Zm-27.655,0v-1.388a24.138,24.138,0,0,1-8.871-10.408,28.624,28.624,0,0,1-2.726-11.3q0-5.848,2.082-5.848,1.487,0,3.073.05a10.066,10.066,0,0,0,1.982-.05,8.111,8.111,0,0,0,5.006-3.073,9.379,9.379,0,0,0,1.933-5.947,7.336,7.336,0,0,0-2.775-6.2,9.994,9.994,0,0,0-6.245-2.131,11.407,11.407,0,0,0-9.417,4.956q-3.767,4.956-3.767,12.588a30.6,30.6,0,0,0,5.353,17.2A29.591,29.591,0,0,0,23.789-103.979Z" transform="translate(-3.564 150.768)" fill="none" stroke="#fff" stroke-width="1"/>
</svg>
