<svg xmlns="http://www.w3.org/2000/svg" width="232" height="319" viewBox="0 0 232 319">
  <g id="Path_48913" data-name="Path 48913" fill="#fff" opacity="0.27">
    <path d="M148.275,0H212a20,20,0,0,1,20,20V299a20,20,0,0,1-20,20H0Z" stroke="none"/>
    <path d="M 148.9133148193359 1 L 1.56756591796875 318 L 212 318 C 214.5654144287109 318 217.0535888671875 317.497802734375 219.3953704833984 316.5072937011719 C 221.6577453613281 315.5503845214844 223.6897888183594 314.1802978515625 225.4350433349609 312.4349975585938 C 227.1802978515625 310.6897583007812 228.5503692626953 308.65771484375 229.5072937011719 306.3953247070312 C 230.4977874755859 304.0535888671875 231 301.5654296875 231 299 L 231 20 C 231 17.4345703125 230.4977874755859 14.9464111328125 229.5072937011719 12.6046142578125 C 228.5503692626953 10.34225463867188 227.1802978515625 8.310211181640625 225.4350433349609 6.564971923828125 C 223.6897888183594 4.8197021484375 221.6577453613281 3.449615478515625 219.3953704833984 2.492706298828125 C 217.0535888671875 1.502197265625 214.5654144287109 1 212 1 L 148.9133148193359 1 M 148.2753753662109 0 L 212 0 C 223.0457153320312 0 232 8.95428466796875 232 20 L 232 299 C 232 310.045654296875 223.0457153320312 319 212 319 L 0 319 L 148.2753753662109 0 Z" stroke="none" fill="rgba(255,255,255,0.28)"/>
  </g>
</svg>
